<svg xmlns="http://www.w3.org/2000/svg" viewBox="0 0 1200 1080" fill="none">
  <defs>
    <linearGradient id="wall" x1="240" y1="130" x2="1020" y2="970" gradientUnits="userSpaceOnUse"><stop stop-color="#D8D6CE"/><stop offset=".48" stop-color="#AEB2A5"/><stop offset="1" stop-color="#485347"/></linearGradient>
    <linearGradient id="inner" x1="550" y1="300" x2="905" y2="900" gradientUnits="userSpaceOnUse"><stop stop-color="#30362F"/><stop offset="1" stop-color="#171A16"/></linearGradient>
    <linearGradient id="floor" x1="600" y1="650" x2="610" y2="1080" gradientUnits="userSpaceOnUse"><stop stop-color="#30352E"/><stop offset="1" stop-color="#111310"/></linearGradient>
    <radialGradient id="light" cx="0" cy="0" r="1" gradientTransform="matrix(0 620 -500 0 650 125)" gradientUnits="userSpaceOnUse"><stop stop-color="#A8B09E" stop-opacity=".24"/><stop offset="1" stop-color="#111310" stop-opacity="0"/></radialGradient>
    <pattern id="grain" width="7" height="7" patternUnits="userSpaceOnUse"><circle cx="1" cy="2" r=".45" fill="#F4F1E9" fill-opacity=".12"/><circle cx="5" cy="6" r=".35" fill="#F4F1E9" fill-opacity=".1"/></pattern>
  </defs>
  <path fill="#111310" d="M0 0h1200v1080H0z"/>
  <path fill="url(#light)" d="M0 0h1200v1080H0z"/>
  <path fill="url(#floor)" d="M0 805 1200 692v388H0z"/>
  <path stroke="#D8D6CE" stroke-opacity=".22" d="m0 804 1200-112M115 1080l478-381m438 381L642 699M300 1080l344-381m645 381L642 699"/>
  <path fill="#283027" d="M168 716V281c0-189 151-342 337-342h219c187 0 338 153 338 342v435H168Z" transform="translate(0 130)"/>
  <path fill="url(#wall)" d="M214 755V355c0-183 144-331 321-331h130c177 0 321 148 321 331v400H214Z"/>
  <path fill="url(#inner)" d="M379 755V394c0-90 71-163 159-163h123c88 0 159 73 159 163v361H379Z"/>
  <path fill="#536653" d="M820 755V356c0-183-144-331-321-331h55c177 0 321 148 321 331v399h-55Z" opacity=".92"/>
  <path stroke="#F4F1E9" stroke-opacity=".42" d="M214 755V355c0-183 144-331 321-331h130c177 0 321 148 321 331v400"/>
  <path stroke="#D8D6CE" stroke-opacity=".25" d="M278 755V357c0-147 115-267 257-267h130c142 0 257 120 257 267v398M326 755V375c0-121 94-219 210-219h130c116 0 210 98 210 219v380"/>
  <path stroke="#111310" stroke-opacity=".55" stroke-width="12" d="M379 755V394c0-90 71-163 159-163h123c88 0 159 73 159 163v361"/>
  <path fill="#111310" fill-opacity=".58" d="M0 755h1200v325H0z"/>
  <path stroke="#D8D6CE" stroke-opacity=".36" d="M0 755h1200M88 838h1024M226 923h750"/>
  <path fill="url(#grain)" d="M0 0h1200v1080H0z"/>
  <path stroke="#F4F1E9" stroke-opacity=".3" d="M74 70h1052v940H74z"/>
  <path stroke="#F4F1E9" stroke-opacity=".16" d="M102 98h996v884h-996z"/>
</svg>
